<?xml version="1.0" standalone="no"?><!DOCTYPE svg PUBLIC "-//W3C//DTD SVG 1.1//EN" "http://www.w3.org/Graphics/SVG/1.1/DTD/svg11.dtd"><svg t="1576576561377" class="icon" viewBox="0 0 1024 1024" version="1.1" xmlns="http://www.w3.org/2000/svg" p-id="7402" xmlns:xlink="http://www.w3.org/1999/xlink" width="200" height="200"><defs><style type="text/css"></style></defs><path d="M881.6 454.4V145.6C881.6 86.4 833.6 40 776 40H176C118.4 40 70.4 86.4 70.4 145.6V872c0 57.6 48 105.6 105.6 105.6h273.6c12.8 0 22.4-9.6 22.4-22.4 0-12.8-11.2-22.4-22.4-22.4H176c-33.6 0-62.4-27.2-62.4-62.4V144c0-33.6 27.2-62.4 62.4-62.4h600c33.6 0 62.4 27.2 62.4 62.4v308.8c0 12.8 11.2 22.4 22.4 22.4 12.8 0 22.4-9.6 20.8-20.8z" p-id="7403" fill="#2c2c2c"></path><path d="M254.4 280h446.4c12.8 0 20.8-11.2 20.8-20.8 0-12.8-11.2-20.8-20.8-20.8H254.4c-12.8 0-20.8 9.6-20.8 20.8 0 12.8 8 20.8 20.8 20.8z m-3.2 161.6h355.2c9.6 0 17.6-9.6 17.6-20.8 0-12.8-8-20.8-17.6-20.8H251.2c-9.6 0-17.6 11.2-17.6 20.8 0 11.2 6.4 20.8 17.6 20.8z m267.2 139.2c0-12.8-11.2-20.8-20.8-20.8H256c-12.8 0-20.8 9.6-20.8 20.8 0 12.8 11.2 20.8 20.8 20.8h241.6c11.2 0 19.2-9.6 20.8-20.8z" p-id="7404" fill="#2c2c2c"></path><path d="M977.6 640L867.2 529.6l-1.6-1.6-1.6-1.6c-8-8-22.4-8-32 0L526.4 832c-3.2 1.6-4.8 4.8-6.4 8v1.6c0 1.6-1.6 1.6-1.6 3.2v118.4c0 3.2 0 4.8 1.6 8s3.2 4.8 4.8 6.4c3.2 4.8 9.6 6.4 16 6.4H656c6.4 0 11.2-3.2 16-6.4l307.2-307.2c4.8-4.8 6.4-9.6 6.4-16-1.6-4.8-3.2-9.6-8-14.4zM644.8 939.2h-81.6v-78.4L848 574.4l80 80-283.2 284.8z" p-id="7405" fill="#2c2c2c"></path></svg>