<?xml version="1.0" standalone="no"?><!DOCTYPE svg PUBLIC "-//W3C//DTD SVG 1.1//EN" "http://www.w3.org/Graphics/SVG/1.1/DTD/svg11.dtd"><svg t="1576573718771" class="icon" viewBox="0 0 1024 1024" version="1.1" xmlns="http://www.w3.org/2000/svg" p-id="2379" xmlns:xlink="http://www.w3.org/1999/xlink" width="200" height="200"><defs><style type="text/css"></style></defs><path d="M924.72 1012.336a81.92 81.92 0 0 1-56.896-22.848l-0.24-0.24-327.04-327.04c-13.264-13.264-31.216-19.712-50.528-18.064a160.896 160.896 0 0 1-125.952-46.736c-39.824-39.824-56.032-98.656-42.304-153.536l0.368-1.28c2.416-7.168 8.464-12.672 15.776-14.384 7.232-1.664 14.72 0.528 20.048 5.904l58.8 58.784a28.368 28.368 0 0 0 40.032 0l26.912-26.928c5.52-5.504 8.544-12.608 8.544-20.016s-3.04-14.512-8.544-20.016l-61.808-61.824c-5.072-5.04-7.104-12.544-5.36-20.048 1.744-7.52 6.944-13.408 13.888-15.744 57.888-18.544 122.176-2.784 163.968 40.096 34.16 34.16 51.184 82.288 46.56 131.936-2.352 19.728 4.544 40 18.416 54.688l321.712 321.712a80.368 80.368 0 0 1 0 113.52 83.008 83.008 0 0 1-56.352 22.064z m-33.472-47.008c18.208 17.392 48.048 17.696 66.592 0.656 17.984-18.016 17.984-46.992-0.512-65.488L635.28 578.448c-20.976-22.192-31.232-52.608-27.744-81.68 3.632-39.2-9.856-77.536-37.056-104.752-28.336-29.072-69.632-42.336-109.52-36.432l46.544 46.56c11.856 11.856 18.384 27.408 18.384 43.792s-6.528 31.936-18.4 43.792l-26.896 26.912c-11.856 11.872-27.408 18.4-43.792 18.4s-31.936-6.528-43.792-18.4l-42.128-42.128a128.528 128.528 0 0 0 36.992 99.104 127.216 127.216 0 0 0 99.52 36.992c29.232-2.4 56.608 7.456 76.944 27.808l326.912 326.912z m-385.664-30h-56.832a54.768 54.768 0 0 1-54.704-54.704v-41.136c-39.568-8.976-78-25.072-114.544-48.016l-29.232 29.248a53.6 53.6 0 0 1-76.624 0L132.752 779.84a53.632 53.632 0 0 1 0-76.624l29.264-29.264a366.704 366.704 0 0 1-47.056-114.528H73.872a53.76 53.76 0 0 1-53.712-53.712v-56.832a53.76 53.76 0 0 1 53.712-53.696h42.176c8.88-38.464 24.688-76.496 47.12-113.376l-30.4-30.416a53.6 53.6 0 0 1 0-76.608l40.896-40.88c10.4-10.416 24-16.144 38.304-16.144s27.904 5.728 38.32 16.144l30.16 30.144a361.888 361.888 0 0 1 112.624-46.896V74.032a53.76 53.76 0 0 1 53.712-53.696h56.832a53.76 53.76 0 0 1 53.696 53.696v43.152a362.816 362.816 0 0 1 112.624 46.896l30.176-30.16c10.4-10.416 24-16.144 38.304-16.144s27.904 5.728 38.32 16.144l40.88 40.88c10.416 10.416 16.144 24.016 16.144 38.304s-5.744 27.904-16.16 38.304l-30.144 30.16a354.768 354.768 0 0 1 46.96 113.632h42.112a53.76 53.76 0 0 1 53.68 53.696v56.832a53.76 53.76 0 0 1-53.68 53.712H835.36a355.44 355.44 0 0 1-28.576 81.44 16.8 16.8 0 1 1-30.08-15.04c13.024-26.032 22.576-55.072 28.432-86.304a16.8 16.8 0 0 1 16.528-13.712h54.848c11.072 0 20.064-9.008 20.064-20.08v-56.832c0-11.072-8.992-20.08-20.064-20.08h-55.84a16.8 16.8 0 0 1-16.528-13.776 321.952 321.952 0 0 0-52.128-126.064 16.8 16.8 0 0 1 1.936-21.456l39.872-39.904c4.064-4.064 6.304-9.216 6.304-14.528s-2.24-10.48-6.304-14.544l-40.88-40.88a20.4 20.4 0 0 0-29.072 0l-39.888 39.872a16.8 16.8 0 0 1-21.456 1.936 327.824 327.824 0 0 0-125.152-52.128 16.768 16.768 0 0 1-13.696-16.496V74.032c0-11.072-9.008-20.08-20.08-20.08h-56.832c-11.072 0-20.08 9.008-20.08 20.08v56.832c0 8.096-5.76 15.04-13.712 16.528a327.536 327.536 0 0 0-125.136 52.128 16.8 16.8 0 0 1-21.456-1.936l-39.872-39.872a20.4 20.4 0 0 0-29.072-0.016l-40.896 40.88c-8.416 8.416-8.416 20.64 0 29.056l39.888 39.904c5.616 5.616 6.528 14.4 2.208 21.056-26.736 41.136-44.368 83.696-52.4 126.528a16.8 16.8 0 0 1-16.528 13.712h-55.84c-11.072 0-20.08 9.008-20.08 20.08v56.832c0 11.072 9.008 20.08 20.08 20.08h54.848c8.112 0 15.072 5.792 16.544 13.776a334.352 334.352 0 0 0 52.224 127.232c4.496 6.672 3.648 15.6-2.048 21.296l-38.896 38.88c-8.416 8.416-8.416 20.656 0.016 29.088l40.88 40.864c8.416 8.4 20.656 8.416 29.088-0.016l38.864-38.88a16.832 16.832 0 0 1 21.296-2.048c40.304 27.216 83.12 45.136 127.232 53.232 7.984 1.456 13.776 8.416 13.776 16.528v54.848c0 11.616 9.456 21.072 21.088 21.072h56.832c11.072 0 20.08-9.008 20.08-20.08v-54.832c0-8.016 5.664-14.912 13.52-16.48 31.712-6.352 56.32-15.2 77.408-27.856a16.832 16.832 0 0 1 23.072 5.776 16.832 16.832 0 0 1-5.776 23.072c-21.312 12.768-45.28 22.128-74.592 29.04v41.28a53.808 53.808 0 0 1-53.744 53.712z" fill="#2c2c2c" p-id="2380"></path><path d="M924.72 1016.336a85.76 85.76 0 0 1-59.664-23.968L537.712 665.024c-12.32-12.32-29.248-18.4-47.36-16.912a163.648 163.648 0 0 1-129.12-47.888c-40.816-40.816-57.424-101.104-43.36-157.328l0.416-1.472a26.192 26.192 0 0 1 18.688-17.12 25.376 25.376 0 0 1 23.808 6.992l58.784 58.768c9.152 9.168 25.232 9.168 34.368 0l26.912-26.928c4.752-4.736 7.376-10.848 7.376-17.184s-2.624-12.432-7.376-17.184l-61.808-61.824c-6.08-6.032-8.496-14.928-6.432-23.776 2.064-8.88 8.24-15.84 16.512-18.624a165.152 165.152 0 0 1 50.48-7.872c44.416 0 87.296 17.84 117.632 48.976 35.008 35.008 52.4 84.272 47.664 135.088-2.208 18.512 4.288 37.76 17.344 51.584l321.664 321.6a84.336 84.336 0 0 1 0 119.168 86.976 86.976 0 0 1-59.184 23.248zM495.904 639.888c18.048 0 34.912 6.928 47.472 19.488L870.4 986.416a77.92 77.92 0 0 0 54.32 21.92 79.056 79.056 0 0 0 53.648-21.008C1008 957.696 1008 909.312 978.256 879.584L656.528 557.872c-14.752-15.616-22.032-37.248-19.568-58 4.496-48.352-12.048-95.28-45.408-128.64-28.88-29.632-69.664-46.592-111.936-46.592a157.2 157.2 0 0 0-48 7.472 17.376 17.376 0 0 0-11.2 12.832c-1.424 6.128 0.176 12.224 4.288 16.304l61.808 61.84c6.272 6.256 9.712 14.368 9.712 22.848 0 8.48-3.456 16.592-9.712 22.848l-26.912 26.928c-12.176 12.176-33.536 12.176-45.68 0l-58.8-58.784a17.44 17.44 0 0 0-16.32-4.832 18.08 18.08 0 0 0-12.896 11.76l-0.288 1.04c-13.376 53.456 2.432 110.816 41.264 149.664a156.32 156.32 0 0 0 122.832 45.584c2.048-0.16 4.128-0.256 6.192-0.256z m429.024 342.688a52.416 52.416 0 0 1-36.432-14.352L561.52 641.248c-19.312-19.312-45.856-28.896-73.792-26.656-38.832 3.008-75.504-11.008-102.672-38.16a132 132 0 0 1-38.16-102.192l0.592-8.8 48.352 48.352a57.696 57.696 0 0 0 40.96 17.232c15.328 0 29.872-6.128 40.976-17.232l26.896-26.912a57.6 57.6 0 0 0 17.232-40.96c0-15.312-6.112-29.856-17.216-40.976l-52.16-52.176 7.856-1.168c41.264-6.096 84.384 8.272 112.976 37.6 28.016 28.016 41.936 67.36 38.176 107.904-3.36 28.016 6.624 57.344 26.672 78.576L960.16 897.664c20.08 20.064 20.32 51.312 0.512 71.136a52.384 52.384 0 0 1-35.744 13.776zM496 606.256c26.992 0 52.272 10.416 71.184 29.344L894.08 962.496a44.416 44.416 0 0 0 30.848 12.08c11.392 0 22.128-4.096 30.224-11.536 16.496-16.544 16.272-42.832-0.64-59.712L632.448 581.28c-21.744-23.008-32.512-54.752-28.896-84.992 3.536-38.064-9.552-75.072-35.904-101.44-24.992-25.648-61.52-39.248-98-36.224l40.688 40.688a65.616 65.616 0 0 1 19.552 46.624 65.6 65.6 0 0 1-19.584 46.624l-26.896 26.912a65.6 65.6 0 0 1-46.624 19.584 65.632 65.632 0 0 1-46.624-19.584l-35.584-35.584a123.872 123.872 0 0 0 36.096 86.896 122.944 122.944 0 0 0 96.384 35.84 105.28 105.28 0 0 1 8.944-0.368z m9.584 333.072h-56.832a58.768 58.768 0 0 1-58.704-58.704v-37.952c-37.936-8.976-74.88-24.464-109.952-46.128l-26.992 27.008a57.984 57.984 0 0 1-41.152 17.28 57.888 57.888 0 0 1-41.12-17.28L129.92 782.672a57.6 57.6 0 0 1 0-82.288l27.024-27.024a371.232 371.232 0 0 1-45.184-109.936H73.872a57.776 57.776 0 0 1-57.712-57.712v-56.832a57.76 57.76 0 0 1 57.712-57.696h39.008c8.864-36.848 24.08-73.408 45.248-108.768l-28.192-28.208c-23.056-23.056-23.056-59.184 0-82.272l40.896-40.88a57.84 57.84 0 0 1 41.136-17.328c15.376 0 30 6.144 41.152 17.328l27.904 27.888a369.632 369.632 0 0 1 108.048-44.992V74.032a57.76 57.76 0 0 1 57.712-57.696h56.832a57.76 57.76 0 0 1 57.696 57.696v39.984a369.376 369.376 0 0 1 108.048 44.992l27.92-27.904a57.888 57.888 0 0 1 41.136-17.328c15.36 0 29.968 6.144 41.136 17.328l40.88 40.88a57.952 57.952 0 0 1 17.328 41.136c0 15.36-6.16 29.984-17.344 41.136l-27.888 27.904a358.624 358.624 0 0 1 45.072 109.056h38.928a57.76 57.76 0 0 1 57.664 57.696v56.832a57.76 57.76 0 0 1-57.664 57.712h-37.984a357.28 357.28 0 0 1-28.192 79.216 21.2 21.2 0 0 1-27.92 9.328 20.864 20.864 0 0 1-9.312-27.936c12.832-25.632 22.288-54.32 28.08-85.248a20.816 20.816 0 0 1 20.448-16.976h54.864c8.864 0 16.064-7.216 16.064-16.08v-56.832c0-8.864-7.2-16.08-16.064-16.08h-55.84a20.784 20.784 0 0 1-20.464-17.056 318.048 318.048 0 0 0-51.472-124.496 20.768 20.768 0 0 1 2.384-26.56l39.872-39.904c3.312-3.312 5.12-7.456 5.12-11.696 0-4.256-1.808-8.4-5.12-11.712l-40.896-40.88a16.8 16.8 0 0 0-23.408 0l-39.888 39.872c-6.928 6.912-18.464 8-26.56 2.384a324.096 324.096 0 0 0-123.616-51.488 20.736 20.736 0 0 1-16.96-20.416V74.032c0-8.864-7.216-16.08-16.08-16.08h-56.832c-8.864 0-16.08 7.216-16.08 16.08v56.832a20.8 20.8 0 0 1-16.976 20.448 323.568 323.568 0 0 0-123.6 51.488 21.184 21.184 0 0 1-26.56-2.4l-39.872-39.872a16.8 16.8 0 0 0-23.424 0l-40.896 40.88a16.576 16.576 0 0 0-5.152 11.696c0 4.224 1.824 8.384 5.152 11.696l39.888 39.904c6.912 6.896 8.064 17.856 2.736 26.064-26.448 40.704-43.888 82.784-51.824 125.072a20.816 20.816 0 0 1-20.464 16.976h-55.84c-8.864 0-16.08 7.216-16.08 16.08v56.832c0 8.864 7.216 16.08 16.08 16.08h54.848c10.032 0 18.656 7.168 20.48 17.024a330.496 330.496 0 0 0 51.6 125.728 20.832 20.832 0 0 1-2.528 26.352l-38.896 38.896c-3.328 3.312-5.136 7.472-5.136 11.696s1.824 8.384 5.152 11.712l40.88 40.864a16.272 16.272 0 0 0 23.44-0.016l38.864-38.88a21.2 21.2 0 0 1 26.368-2.528c39.856 26.928 82.16 44.624 125.712 52.608 9.888 1.792 17.056 10.4 17.056 20.464v54.848c0 9.424 7.664 17.072 17.088 17.072H505.6c8.864 0 16.08-7.216 16.08-16.096V826.72c0-9.872 7.024-18.448 16.736-20.4 31.264-6.256 55.456-14.96 76.128-27.36a21.28 21.28 0 0 1 28.56 7.136 20.864 20.864 0 0 1-7.136 28.56c-21.104 12.656-44.272 21.824-72.656 28.784v38.112a57.824 57.824 0 0 1-57.728 57.776z m-226.64-152.944l2.688 1.68c36.064 22.656 74.192 38.64 113.296 47.504l3.12 0.72v44.336a50.752 50.752 0 0 0 50.704 50.704h56.832a49.84 49.84 0 0 0 49.744-49.712v-44.432l3.072-0.72c28.992-6.848 52.336-15.92 73.456-28.592a12.848 12.848 0 0 0 4.4-17.6 13.056 13.056 0 0 0-17.6-4.368c-21.472 12.88-46.464 21.888-78.672 28.336a12.864 12.864 0 0 0-10.304 12.56v54.832c0 13.28-10.8 24.096-24.08 24.096h-56.832a25.104 25.104 0 0 1-25.088-25.072v-54.848a12.8 12.8 0 0 0-10.496-12.592c-44.656-8.192-87.968-26.32-128.752-53.856a13.088 13.088 0 0 0-16.24 1.568l-38.848 38.88a24.448 24.448 0 0 1-34.752 0.016l-40.88-40.864a24.608 24.608 0 0 1-7.504-17.376c0-6.368 2.656-12.544 7.488-17.36l38.896-38.896a12.848 12.848 0 0 0 1.568-16.24 338.432 338.432 0 0 1-52.848-128.752 12.8 12.8 0 0 0-12.608-10.48H73.872c-13.28 0-24.08-10.8-24.08-24.08v-56.832c0-13.28 10.8-24.08 24.08-24.08h55.84a12.832 12.832 0 0 0 12.608-10.448c8.128-43.328 25.952-86.384 52.976-127.968a12.88 12.88 0 0 0-1.68-16.048l-39.888-39.904a24.512 24.512 0 0 1-7.488-17.344c0-6.368 2.672-12.544 7.488-17.36l40.896-40.88a25.024 25.024 0 0 1 34.736 0.016l39.872 39.872a13.072 13.072 0 0 0 16.352 1.472 331.472 331.472 0 0 1 126.672-52.768 12.832 12.832 0 0 0 10.448-12.592V74.032c0-13.28 10.8-24.08 24.08-24.08h56.832c13.28 0 24.08 10.8 24.08 24.08v56.832c0 6.16 4.368 11.44 10.416 12.56 45.248 8.48 89.04 26.72 126.704 52.768a13.072 13.072 0 0 0 16.336-1.472l39.888-39.872a24.96 24.96 0 0 1 34.72 0l40.896 40.88c4.816 4.816 7.472 10.992 7.472 17.36 0 6.368-2.656 12.544-7.472 17.36l-39.872 39.904a12.8 12.8 0 0 0-1.488 16.336 325.904 325.904 0 0 1 52.784 127.632 12.8 12.8 0 0 0 12.592 10.496h55.84c13.264 0 24.064 10.8 24.064 24.08v56.832c0 13.28-10.8 24.08-24.064 24.08h-54.864a12.784 12.784 0 0 0-12.576 10.432c-5.952 31.68-15.648 61.072-28.8 87.376a12.832 12.832 0 0 0 5.728 17.184 13.024 13.024 0 0 0 17.184-5.728 351.568 351.568 0 0 0 28.256-80.528l0.704-3.12h44.368a49.744 49.744 0 0 0 49.664-49.712v-56.832a49.76 49.76 0 0 0-49.664-49.696H831.2l-0.704-3.12a351.104 351.104 0 0 0-46.432-112.352l-1.712-2.704 32.4-32.432a50 50 0 0 0 15.008-35.472c0-13.216-5.328-25.808-14.992-35.472l-40.88-40.88a50.016 50.016 0 0 0-35.488-14.976c-13.232 0-25.824 5.328-35.488 14.976l-32.432 32.416-2.704-1.712a361.152 361.152 0 0 0-111.376-46.368l-3.104-0.704V74.032a49.76 49.76 0 0 0-49.696-49.696h-56.832a49.76 49.76 0 0 0-49.712 49.696v46.304l-3.104 0.704a360.832 360.832 0 0 0-111.376 46.368l-2.704 1.712-32.416-32.4a49.952 49.952 0 0 0-35.488-14.976 49.92 49.92 0 0 0-35.472 14.976L135.6 177.6a49.648 49.648 0 0 0 0 70.96l32.624 32.64-1.632 2.688c-22.176 36.448-37.872 74.208-46.64 112.208l-0.72 3.104H73.872a49.76 49.76 0 0 0-49.712 49.696v56.832a49.76 49.76 0 0 0 49.712 49.712h44.288l0.704 3.12a363.472 363.472 0 0 0 46.544 113.296l1.68 2.688-31.52 31.52a49.68 49.68 0 0 0 0 70.976l40.896 40.88a49.968 49.968 0 0 0 35.472 14.944 50.08 50.08 0 0 0 35.504-14.944l31.504-31.536z" fill="#2c2c2c" p-id="2381"></path></svg>