<?xml version="1.0" standalone="no"?><!DOCTYPE svg PUBLIC "-//W3C//DTD SVG 1.1//EN" "http://www.w3.org/Graphics/SVG/1.1/DTD/svg11.dtd"><svg t="1576576586108" class="icon" viewBox="0 0 1194 1024" version="1.1" xmlns="http://www.w3.org/2000/svg" p-id="8172" xmlns:xlink="http://www.w3.org/1999/xlink" width="233.203125" height="200"><defs><style type="text/css"></style></defs><path d="M1078.272 471.893333a39.68 39.68 0 0 1-24.234667-8.277333c-3.925333-2.986667-95.914667-74.837333-95.914666-192.170667 0-117.248 91.989333-189.184 95.914666-192.170666a40.106667 40.106667 0 0 1 48.725334 63.658666c-0.426667 0.341333-64.426667 51.456-64.426667 128.512 0 77.141333 64 128.170667 64.597333 128.682667a40.192 40.192 0 0 1-24.661333 71.765333zM116.309333 953.002667a40.021333 40.021333 0 0 1-24.576-71.850667c1.365333-1.024 64.597333-51.968 64.597334-128.597333 0-76.970667-63.829333-128-64.426667-128.512a40.106667 40.106667 0 0 1 48.725333-63.658667c3.925333 2.986667 95.914667 74.837333 95.914667 192.170667 0 117.333333-91.989333 189.184-95.914667 192.170666a39.936 39.936 0 0 1-24.32 8.277334z" p-id="8173"></path><path d="M1078.442667 471.893333H276.650667a200.704 200.704 0 0 1-200.533334-200.448A200.704 200.704 0 0 1 276.736 70.997333h801.792a40.106667 40.106667 0 0 1 0 80.213334H276.650667a120.32 120.32 0 0 0-120.32 120.32c0 66.218667 54.016 120.234667 120.32 120.234666h801.792a40.106667 40.106667 0 0 1 0 80.213334z m-160.426667 481.109334H116.309333a40.106667 40.106667 0 0 1 0-80.213334h801.706667a120.32 120.32 0 0 0 120.32-120.32 120.32 120.32 0 0 0-120.32-120.234666H116.309333a40.106667 40.106667 0 0 1 0-80.213334h801.706667a200.704 200.704 0 0 1 200.533333 200.533334 200.704 200.704 0 0 1-200.533333 200.448z" p-id="8174"></path><path d="M467.029333 203.349333H366.933333v260.522667c0 22.186667 17.92 40.106667 40.106667 40.106667h19.968c22.186667 0 40.106667-17.92 40.106667-40.106667V203.349333z" p-id="8175"></path></svg>