<?xml version="1.0" standalone="no"?><!DOCTYPE svg PUBLIC "-//W3C//DTD SVG 1.1//EN" "http://www.w3.org/Graphics/SVG/1.1/DTD/svg11.dtd"><svg t="1576573886164" class="icon" viewBox="0 0 1024 1024" version="1.1" xmlns="http://www.w3.org/2000/svg" p-id="6026" xmlns:xlink="http://www.w3.org/1999/xlink" width="200" height="200"><defs><style type="text/css"></style></defs><path d="M619.005562 578.662751c-0.125306-7.267744-4.636319-13.53304-10.901615-16.415076 2.882036-2.255507 4.761625-5.764072 4.761625-9.773862 0-6.891826-5.513461-12.405286-12.405286-12.405286s-12.405286 5.513461-12.405287 12.405286c0 4.00979 1.879589 7.518355 4.761625 9.773862-6.265296 2.75673-10.651003 9.022026-10.901615 16.28977 0 0.125306-0.125306 0.375918-0.125306 0.501224v0.250611c0 1.127753 0.877141 2.004895 2.004895 2.004895 1.127753 0 2.004895-0.877141 2.004895-2.004895 0-7.518355 5.889378-13.783651 13.282428-14.410181 0.375918 0 0.751836 0.125306 1.127753 0.125306 0.375918 0 0.751836 0 1.127753-0.125306 7.267744 0.62653 13.031816 6.641214 13.282428 14.034264V579.28928c0 1.127753 0.877141 2.004895 2.004895 2.004895 1.127753 0 2.004895-0.877141 2.004894-2.004895v-0.250611c0.375918-0.250612 0.375918-0.375918 0.375918-0.375918z m-18.545276-18.044053c-4.511013 0-8.270191-3.633872-8.270191-8.270191 0-4.511013 3.633872-8.270191 8.270191-8.270191 4.511013 0 8.270191 3.633872 8.270191 8.270191 0 4.511013-3.633872 8.270191-8.270191 8.270191z m30.825257 18.294665v-0.250612c-0.125306-7.267744-4.511013-13.407734-10.651004-16.28977v-0.250612c2.75673-2.255507 4.636319-5.764072 4.636319-9.648556 0-6.515908-5.012237-11.904063-11.402839-12.27998l-0.125306 0.125306c-1.002447 0-1.879589 0.877141-1.879588 2.004894v0.125306c0 1.127753 0.877141 2.004895 2.004894 2.004895 0.250612 0 0.62653-0.125306 0.877142-0.250612 0.125306 0.125306 0.125306 0.250612 0.250612 0.375918 3.508566 0.877141 6.13999 4.135095 6.13999 8.019579 0 3.007342-1.628977 5.638767-4.135096 7.142438l-0.125305 0.125305c-0.751836 0.250612-1.503671 0.877141-1.754283 1.754283l-0.250612 0.250612 0.125306 0.125306c0 0.250612-0.125306 0.375918-0.125306 0.62653v0.250612c0 1.628977 1.253059 2.882036 2.882036 2.882036 0.250612 0 0.501224 0 0.62653-0.125306 0.250612 0.250612 0.375918 0.501224 0.626529 0.751835 4.761625 2.255507 8.144885 7.017132 8.270191 12.655899V579.414586c0 1.127753 0.877141 2.004895 2.004895 2.004895 1.127753 0 2.004895-0.877141 2.004895-2.004895v-0.501223z m0 0" p-id="6027"></path><path d="M941.793619 799.827704l-88.340675 0.375918-0.375918-90.094958c0-24.434655-18.419971-44.232991-42.854626-44.232991s-44.232991 19.798336-44.23299 44.232991l-0.125306 90.470876-89.468429 0.375918c-24.434655 0-44.232991 18.419971-44.232991 42.854625 0 24.434655 19.798336 44.232991 44.232991 44.232991l89.343123 0.125306-0.125306 91.598629c0 24.434655 19.798336 44.232991 44.23299 44.232991 24.434655 0 44.232991-19.798336 44.232991-44.232991l-0.375918-91.473323 88.090064 0.125306c24.434655 0 44.232991-19.798336 44.232991-44.232991 0-24.559961-19.798336-44.358297-44.232991-44.358297z m-281.061185-114.529613c4.886931 3.508566 9.648556 7.017132 14.284876 10.651003v-8.395496c16.540382 0 31.075869-9.147332 38.594224-22.680372h7.267743l-2.75673-44.232991h5.012237c-5.388155-4.135095-10.901615-8.144885-16.540382-12.029369-4.636319-4.886931-10.400392-8.646109-16.790993-11.026921-18.921194-11.904063-38.844836-22.304454-59.64562-31.32648 81.574156-55.886442 135.205091-149.740578 135.205091-256.125306C765.36288 138.964268 626.398612 0 454.980109 0 283.561607 0 144.722645 138.964268 144.722645 310.38277c0 106.384728 53.630935 200.36417 135.205091 256.250612C140.336938 626.780225 37.711387 756.597161 16.158768 912.352423c-1.628977 4.636319-2.506118 9.52325-2.506118 14.660793l0.375918 3.508566v0.626529c0 24.434655 19.798336 44.232991 44.23299 44.232991 24.434655 0 44.232991-19.798336 44.232991-44.232991v-0.501223h0.751836C123.921862 761.609398 263.387354 629.41165 435.557691 620.013705c6.390602 0.375918 12.90651 0.62653 19.422418 0.62653 6.515908 0 13.031816-0.250612 19.547724-0.62653 61.14929 3.257954 118.163485 22.179148 167.283407 52.628488 5.012237 5.764072 11.528145 10.14978 18.921194 12.655898zM454.980109 532.048948c-122.423886 0-221.666177-99.242291-221.666177-221.666178S332.556223 88.716593 454.980109 88.716593 676.646287 187.958884 676.646287 310.38277s-99.242291 221.666177-221.666178 221.666178z m0 0" p-id="6028"></path></svg>