<?xml version="1.0" standalone="no"?><!DOCTYPE svg PUBLIC "-//W3C//DTD SVG 1.1//EN" "http://www.w3.org/Graphics/SVG/1.1/DTD/svg11.dtd"><svg t="1576573786927" class="icon" viewBox="0 0 1024 1024" version="1.1" xmlns="http://www.w3.org/2000/svg" p-id="4223" xmlns:xlink="http://www.w3.org/1999/xlink" width="200" height="200"><defs><style type="text/css"></style></defs><path d="M864.4835552 313.1164448a13.9264 13.9264 0 0 0-16.24746667 11.19573333l-10.6496 57.61706667a343.8364448 343.8364448 0 0 0-349.2067552-233.0168896A342.69866667 342.69866667 0 0 0 252.58666667 265.96693333 340.42311147 340.42311147 0 0 0 179.13173333 404.59377813a13.9264 13.9264 0 1 0 26.98808854 7.05422187 312.79786667 312.79786667 0 0 1 67.5384896-127.43111147 314.93688853 314.93688853 0 0 1 216.63288853-107.5427552 314.93688853 314.93688853 0 0 1 229.1939552 77.09582187 315.75608853 315.75608853 0 0 1 105.31271147 194.69653333 13.88088853 13.88088853 0 0 0 5.46133333 9.28426667 13.83537813 13.83537813 0 0 0 9.4208 3.6408896 13.9264 13.9264 0 0 0 13.6988448-11.4232896l22.30044373-120.60444373a13.9264 13.9264 0 0 0-11.19573333-16.29297814zM835.03786667 564.2012448a13.9264 13.9264 0 0 0-17.0211552 9.96693333 312.88888853 312.88888853 0 0 1-67.5384896 127.4311104 314.93688853 314.93688853 0 0 1-216.63288854 107.54275627 314.93688853 314.93688853 0 0 1-229.1939552-77.09582293 315.75608853 315.75608853 0 0 1-105.2672-194.69653334 13.88088853 13.88088853 0 0 0-5.55235626-9.28426666 13.9264 13.9264 0 0 0-23.07413334 7.7824l-22.30044373 120.6044448a13.9264 13.9264 0 1 0 27.4432 5.0972448l10.6496-57.61706667a343.8364448 343.8364448 0 0 0 349.2067552 233.01688853 342.69866667 342.69866667 0 0 0 235.7475552-117.05457813 340.51413333 340.51413333 0 0 0 73.5004448-138.6723552 13.9264 13.9264 0 0 0-10.0124448-17.0211552z" p-id="4224" fill="#2c2c2c"></path><path d="M739.28248853 652.85688853a13.47128853 13.47128853 0 0 1-2.2755552 9.4208 13.47128853 13.47128853 0 0 1-7.91893333 5.59786667l-105.2672 41.87022293c-17.56728853 7.05422187-28.0803552-19.34222187-10.4675552-26.3964448l97.5303104-38.77546666V393.67111147l-198.79253333-79.50791147L326.76977813 388.3008l98.39502187 39.36711147c17.56728853 7.00871147 7.00871147 33.3596448-10.60408853 26.35093333l-101.1712-40.45937813v231.05991146l184.5475552 73.45493334v-247.5804448a13.47128853 13.47128853 0 0 1 2.2755552-9.37528854 13.47128853 13.47128853 0 0 1 7.87342293-5.55235626l105.2672-42.09777707c17.6128-7.05422187 28.12586667 19.29671147 10.55857707 26.35093333l-97.57582187 39.04853334v257.91146666a14.65457813 14.65457813 0 0 1 0 3.86844374c-0.91022187 12.6976-15.10968853 16.06542187-23.07413333 10.10346666l-208.12231147-82.83022186a13.47128853 13.47128853 0 0 1-7.87342187-5.59786667 13.47128853 13.47128853 0 0 1-2.2755552-9.46631147V385.38808853a13.47128853 13.47128853 0 0 1 2.2755552-9.4208 13.47128853 13.47128853 0 0 1 7.87342187-5.59786666l209.44213333-83.74044374A12.74311147 12.74311147 0 0 1 512.09102187 284.4444448a12.74311147 12.74311147 0 0 1 7.60035626 2.048l209.44213334 83.7859552c3.18577813 0.86471147 6.00746667 2.73066667 7.87342186 5.59786667a13.3347552 13.3347552 0 0 1 2.2755552 9.37528853V652.85688853z" p-id="4225" fill="#2c2c2c"></path></svg>