<?xml version="1.0" standalone="no"?><!DOCTYPE svg PUBLIC "-//W3C//DTD SVG 1.1//EN" "http://www.w3.org/Graphics/SVG/1.1/DTD/svg11.dtd"><svg t="1576573864282" class="icon" viewBox="0 0 1024 1024" version="1.1" xmlns="http://www.w3.org/2000/svg" p-id="5372" xmlns:xlink="http://www.w3.org/1999/xlink" width="200" height="200"><defs><style type="text/css"></style></defs><path d="M947.2 757.76v-10.24c0-10.24-5.12-20.48-5.12-25.6V716.8h-5.12c-20.48-5.12-35.84-20.48-51.2-40.96-10.24-20.48-15.36-40.96-10.24-61.44v-5.12l-5.12-5.12c-5.12-5.12-15.36-10.24-20.48-20.48-10.24-10.24-25.6-15.36-35.84-25.6h-5.12c-5.12-5.12-10.24-5.12-20.48-10.24-5.12-5.12-15.36-5.12-20.48-5.12h-5.12l-5.12 5.12c-30.72 30.72-87.04 30.72-117.76 0l-5.12-5.12h-5.12c-5.12 0-15.36 5.12-20.48 5.12-5.12 0-10.24 5.12-15.36 10.24h-5.12c-15.36 5.12-25.6 15.36-35.84 25.6-5.12 5.12-15.36 10.24-20.48 20.48l-5.12 5.12v5.12c5.12 20.48 5.12 40.96-10.24 61.44-10.24 20.48-30.72 35.84-51.2 40.96H460.8c0 10.24-5.12 20.48-5.12 25.6v61.44c0 10.24 5.12 20.48 5.12 25.6v5.12h5.12c20.48 5.12 40.96 20.48 51.2 40.96 10.24 20.48 15.36 40.96 10.24 61.44v5.12l5.12 5.12c5.12 5.12 15.36 10.24 20.48 20.48 10.24 10.24 25.6 15.36 35.84 20.48 5.12 5.12 10.24 5.12 20.48 10.24 5.12 5.12 15.36 5.12 20.48 5.12h5.12l5.12-5.12c30.72-30.72 87.04-30.72 117.76 0l5.12 5.12h5.12c5.12 0 15.36-5.12 20.48-5.12 5.12 0 10.24-5.12 15.36-10.24h5.12c15.36-5.12 25.6-15.36 35.84-25.6 5.12-5.12 15.36-10.24 20.48-20.48l5.12-5.12v-5.12c-5.12-20.48-5.12-40.96 10.24-61.44 10.24-20.48 30.72-35.84 51.2-40.96h5.12v-5.12c0-10.24 5.12-20.48 5.12-25.6v-10.24-20.48c10.24 0 5.12-5.12 5.12-10.24z m-46.08 46.08c-25.6 10.24-40.96 30.72-56.32 51.2-15.36 25.6-20.48 51.2-15.36 76.8-15.36 10.24-30.72 20.48-46.08 25.6-40.96-30.72-107.52-30.72-148.48 0-15.36-5.12-35.84-15.36-46.08-25.6 0-25.6-5.12-51.2-15.36-76.8-15.36-25.6-35.84-40.96-56.32-51.2v-25.6-25.6c25.6-10.24 40.96-30.72 56.32-51.2 15.36-25.6 20.48-51.2 15.36-76.8 15.36-10.24 30.72-20.48 46.08-25.6 40.96 30.72 107.52 30.72 148.48 0 15.36 5.12 35.84 15.36 46.08 25.6 0 25.6 5.12 51.2 15.36 76.8 15.36 25.6 35.84 40.96 56.32 51.2v51.2z" p-id="5373"></path><path d="M701.44 675.84c-56.32 0-97.28 46.08-97.28 97.28 0 56.32 46.08 97.28 97.28 97.28 56.32 0 97.28-46.08 97.28-97.28 0-51.2-40.96-97.28-97.28-97.28z m0 148.48c-25.6 0-51.2-20.48-51.2-51.2s20.48-51.2 51.2-51.2c25.6 0 51.2 20.48 51.2 51.2s-20.48 51.2-51.2 51.2zM394.24 926.72H163.84c10.24-179.2 138.24-348.16 302.08-404.48 15.36 5.12 30.72 5.12 46.08 5.12 133.12 0 240.64-107.52 240.64-240.64S645.12 40.96 512 40.96 271.36 153.6 271.36 286.72c0 87.04 46.08 163.84 117.76 204.8-153.6 76.8-271.36 250.88-281.6 430.08v30.72c0 15.36 10.24 30.72 30.72 30.72h261.12c15.36 0 25.6-10.24 25.6-25.6v-10.24c-5.12-10.24-15.36-20.48-30.72-20.48zM327.68 286.72C327.68 184.32 409.6 102.4 512 102.4s184.32 81.92 184.32 184.32S614.4 471.04 512 471.04 327.68 384 327.68 286.72z" p-id="5374"></path></svg>