<?xml version="1.0" standalone="no"?><!DOCTYPE svg PUBLIC "-//W3C//DTD SVG 1.1//EN" "http://www.w3.org/Graphics/SVG/1.1/DTD/svg11.dtd"><svg t="1576576871897" class="icon" viewBox="0 0 1024 1024" version="1.1" xmlns="http://www.w3.org/2000/svg" p-id="10615" xmlns:xlink="http://www.w3.org/1999/xlink" width="200" height="200"><defs><style type="text/css"></style></defs><path d="M896 865.28H609.28l-204.8 153.6c-7.68 2.56-12.8 5.12-20.48 5.12-5.12 0-10.24 0-15.36-2.56-10.24-5.12-17.92-17.92-17.92-28.16l2.56-117.76-64-10.24c-58.88 0-99.84-51.2-99.84-112.64V335.36c0-61.44 40.96-110.08 99.84-110.08h604.16c61.44 0 128 64 128 122.88v414.72c2.56 61.44-64 102.4-125.44 102.4z m64-517.12c0-25.6-38.4-58.88-64-58.88H291.84c-25.6 0-38.4 20.48-38.4 46.08v417.28c0 25.6 15.36 48.64 38.4 48.64l97.28 10.24c7.68 0 15.36 2.56 23.04 10.24 5.12 5.12 10.24 15.36 10.24 23.04l-2.56 87.04 156.16-112.64c5.12-5.12 28.16-15.36 33.28-15.36H896c25.6 0 64-12.8 64-38.4V348.16z m-158.72 261.12c-35.84 0-64-28.16-64-64s28.16-64 64-64 64 28.16 64 64c0 33.28-30.72 64-64 64z m-192 0c-35.84 0-64-28.16-64-64s28.16-64 64-64 64 28.16 64 64c0 33.28-30.72 64-64 64z m-192 0c-35.84 0-64-28.16-64-64s28.16-64 64-64 64 28.16 64 64c0 33.28-30.72 64-64 64zM819.2 158.72c-17.92 0-30.72-15.36-30.72-30.72v-20.48c0-25.6-25.6-46.08-51.2-46.08H102.4c-25.6 0-40.96 20.48-40.96 46.08v414.72c0 12.8 2.56 23.04 10.24 30.72 12.8 12.8 12.8 30.72 0 46.08-5.12 7.68-15.36 10.24-25.6 10.24-7.68 0-12.8-2.56-17.92-7.68-17.92-20.48-28.16-46.08-28.16-76.8V107.52C0 48.64 43.52 0 102.4 0h632.32c61.44 0 115.2 48.64 115.2 107.52V128c0 15.36-12.8 30.72-30.72 30.72z m0 0" p-id="10616"></path></svg>