<?xml version="1.0" standalone="no"?><!DOCTYPE svg PUBLIC "-//W3C//DTD SVG 1.1//EN" "http://www.w3.org/Graphics/SVG/1.1/DTD/svg11.dtd"><svg t="1575897100846" class="icon" viewBox="0 0 1024 1024" version="1.1" xmlns="http://www.w3.org/2000/svg" p-id="2191" xmlns:xlink="http://www.w3.org/1999/xlink" width="200" height="200"><defs><style type="text/css"></style></defs><path d="M463.04 956.96a177.6 177.6 0 0 1-37.44-3.04c-9.6-2.24-24-6.88-40.64-12.48a447.04 447.04 0 0 0-64-18.08l-16-0.8c-37.44-1.6-84-3.52-86.24-41.76-1.6-28 24.16-69.76 46.24-99.68A224.96 224.96 0 0 1 288 754.72a261.76 261.76 0 0 1-44.8-56.32h-1.6a113.92 113.92 0 0 1-104.16-68.8A102.4 102.4 0 0 1 128 547.52a87.2 87.2 0 0 1 25.6-37.12c-7.52-33.44-20.8-103.84-12-160A210.08 210.08 0 0 1 192 240c9.92-25.44 51.04-106.56 186.08-151.04a473.44 473.44 0 0 1 145.92-22.4c170.72 0 290.72 80 321.12 214.24s27.84 208 21.44 242.24A80 80 0 0 1 896 615.2c-16 55.2-74.72 67.68-102.56 70.56a513.12 513.12 0 0 1-37.76 46.4c-4 4.16-7.84 7.84-11.52 11.2 28.48 25.28 68.8 64 79.2 91.36a90.24 90.24 0 0 1-2.24 71.36 57.44 57.44 0 0 1-29.44 30.08l-2.24 0.8a226.88 226.88 0 0 1-91.36 14.56c-9.92 0-20.64 0-32-1.12-24.8-1.6-42.24-3.04-55.52-4.16S588.64 944 581.28 944a128 128 0 0 0-28.16 3.68 480 480 0 0 1-90.08 9.28z" fill="#FFFFFF" p-id="2192"></path><path d="M184.64 522.24s-27.04-97.92-16-167.04a171.84 171.84 0 0 1 47.04-99.2S240 163.36 386.56 115.36s388-23.04 432 172.64 16 250.08 16 250.08A55.2 55.2 0 0 1 870.56 608c-16 52.96-91.04 52-91.04 52A559.04 559.04 0 0 1 736 713.28a126.72 126.72 0 0 1-36 28s84.96 68.96 98.08 103.04-5.92 63.04-15.04 66.08-35.04 18.08-116 12.96-81.92-9.92-120-1.92A368 368 0 0 1 432 928c-21.92-4.96-84-28.96-108-31.04S247.68 896 246.56 880s19.04-52.64 41.44-82.72a167.68 167.68 0 0 1 44-43.04 211.36 211.36 0 0 1-72.96-84.96s-61.92 16.96-96.96-52 22.56-95.04 22.56-95.04z" fill="#1D1D1B" p-id="2193"></path><path d="M206.56 505.28s-36.96-108-11.04-159.04 28.48-56 28.48-56 44.96-103.04 139.04-134.08S592 98.24 705.6 168.32s114.08 302.08 112.96 315.04-4 14.08-4 14.08a316.8 316.8 0 0 0-51.04-171.04c-55.04-84-120.96-140.96-247.04-139.04S281.6 288 273.6 308.32s-15.04 34.08-15.04 34.08-13.92-20.96-16.96-20.96-11.04 4-8.96 10.08 16.96 22.08 16.96 26.08a75.36 75.36 0 0 1-4 15.04s-24-21.92-28-19.04-4 16-4 16 23.04 24 22.08 27.04a272 272 0 0 0-17.92 64.96 129.28 129.28 0 0 1-11.2 43.68z" fill="#7B5207" p-id="2194"></path><path d="M212.64 552.32s12.96 36.96 20 54.08a112 112 0 0 1 8 31.04 61.6 61.6 0 0 1-49.92-36.96c-13.12-34.24 17.28-44.16 21.92-48.16zM818.56 563.36s-4.96 20-11.04 42.08a116.64 116.64 0 0 1-12 31.04s46.08-3.04 52-29.92a36 36 0 0 0-28.96-43.2zM530.56 218.24c82.08 0 176.96 44.96 227.04 163.04s39.04 236.96-32.96 303.04-136.96 106.08-259.04 87.04-171.04-87.04-208-171.04S240 220.32 530.56 218.24z" fill="#FCD396" p-id="2195"></path><path d="M355.68 768c8.64-6.4 60.96 47.04 179.04 35.04s135.04-43.04 140-43.04 87.04 60.96 98.08 86.08 8.96 42.08 4 43.04a60.8 60.8 0 0 1-13.92 0s-51.04-83.04-60.96-84-12.96 2.08-11.04 7.04 52.96 80 50.08 80.96-12 8.96-17.92 4.96S676.64 832 672 832s-16 3.04-15.04 6.08 46.08 63.04 42.08 64.96a106.24 106.24 0 0 1-23.04 2.08s-40-59.04-45.92-59.04-9.92 10.08-9.92 10.08 35.04 52 31.04 52a334.08 334.08 0 0 0-83.04-9.92c-40 2.08-71.04 18.08-105.92 14.08S384 880 349.6 878.24s-67.04-1.92-68-5.92 10.08-56.32 74.08-104.32z" fill="#FAB900" p-id="2196"></path><path d="M339.68 349.28c-7.36 0 92.96-20 98.08-13.92s8.96 14.08 0.96 14.08-84.16 18.56-91.04 16.8-7.04-16.96-8-16.96zM637.6 339.36c4 0 88 12 88.96 19.04s7.04 8.96-3.04 10.08a736 736 0 0 1-85.92-13.92c-7.04-2.56 0-15.2 0-15.2zM378.56 379.36c55.04-13.12 132-7.04 128.96 91.04s-117.92 114.08-172.96 75.04-56.96-142.08 44-166.08z" fill="#1D1D1B" p-id="2197"></path><path d="M382.24 393.12c46.56-11.04 112-5.92 109.28 77.12s-100 96-146.56 64-48.32-120.8 37.28-141.12z" fill="#FFFFFF" p-id="2198"></path><path d="M614.56 382.24c48-25.28 127.04 2.08 130.08 91.04s-96.96 108-147.04 67.04-60-116.96 16.96-158.08z" fill="#1D1D1B" p-id="2199"></path><path d="M620.96 396.96c39.36-20.96 105.12 1.6 107.52 75.36s-80 89.44-121.6 55.36-49.6-96.8 14.08-130.72z" fill="#FFFFFF" p-id="2200"></path><path d="M392.64 450.24c14.56-11.36 40-7.04 40.96 12a27.2 27.2 0 0 1-37.92 28.96c-25.12-8.96-11.68-33.92-3.04-40.96zM641.6 450.24c14.56-11.36 40-7.04 40.96 12a27.2 27.2 0 0 1-37.92 28.96c-24.96-8.96-12-33.92-3.04-40.96zM508.64 582.24c4.32 0.8 62.08 35.04 70.08 30.08s2.08-28-8-36-8.96-3.04-9.92-8a6.24 6.24 0 0 1 7.04-8 44 44 0 0 1 34.08 36.96c4.96 30.08-12.96 39.04-36.96 32.96a217.44 217.44 0 0 1-65.92-36.96c-3.04-4 4.64-12 9.6-11.04zM416 660.32c7.04-0.96 34.08 34.08 103.04 31.04a293.6 293.6 0 0 0 80-12 15.04 15.04 0 0 1 12 14.08c-0.96 3.04-45.92 22.08-113.92 16-71.36-6.24-91.04-32.96-92.96-36.96s4.48-11.2 11.84-12.16z" fill="#1D1D1B" p-id="2201"></path></svg>